<svg xmlns="http://www.w3.org/2000/svg" width="48" height="48" viewBox="0 0 48 48" fill="none" shape-rendering="crispEdges">
  <rect width="48" height="48" rx="12" fill="#fff0f6"/>
  <g transform="translate(8 8)">
    <rect x="0" y="0" width="8" height="8" fill="#ffd0e1"/>
    <rect x="8" y="0" width="8" height="8" fill="#ff9fc5"/>
    <rect x="16" y="0" width="8" height="8" fill="#ff7fb4"/>
    <rect x="24" y="0" width="8" height="8" fill="#ff5fa4"/>

    <rect x="0" y="8" width="8" height="8" fill="#ffb8d4"/>
    <rect x="8" y="8" width="8" height="8" fill="#ff86b9"/>
    <rect x="16" y="8" width="8" height="8" fill="#ff66ab"/>
    <rect x="24" y="8" width="8" height="8" fill="#ff4f99"/>

    <rect x="0" y="16" width="8" height="8" fill="#ff86b9"/>
    <rect x="8" y="16" width="8" height="8" fill="#ff66ab"/>
    <rect x="16" y="16" width="8" height="8" fill="#ff4f99"/>
    <rect x="24" y="16" width="8" height="8" fill="#ff86b9"/>

    <rect x="0" y="24" width="8" height="8" fill="#ff5fa4"/>
    <rect x="8" y="24" width="8" height="8" fill="#ff4f99"/>
    <rect x="16" y="24" width="8" height="8" fill="#ff66ab"/>
    <rect x="24" y="24" width="8" height="8" fill="#ff9fc5"/>
  </g>
</svg>